<svg width="290" height="68" viewBox="0 0 290 68" fill="none" xmlns="http://www.w3.org/2000/svg">
<path d="M22.9508 8H280L257.049 68H0L22.9508 8Z" fill="#F7931E"/>
<path d="M10.7266 59.5L33.2949 0.5H289.273L266.705 59.5H10.7266Z" stroke="white"/>
<path d="M55.0531 24.8V36H52.4771V26.912H47.4211V36H44.8451V24.8H55.0531ZM61.6695 36.128C60.7628 36.128 59.9468 35.9413 59.2215 35.568C58.5068 35.184 57.9468 34.656 57.5415 33.984C57.1362 33.312 56.9335 32.5493 56.9335 31.696C56.9335 30.8427 57.1362 30.08 57.5415 29.408C57.9468 28.736 58.5068 28.2133 59.2215 27.84C59.9468 27.456 60.7628 27.264 61.6695 27.264C62.5762 27.264 63.3868 27.456 64.1015 27.84C64.8162 28.2133 65.3762 28.736 65.7815 29.408C66.1868 30.08 66.3895 30.8427 66.3895 31.696C66.3895 32.5493 66.1868 33.312 65.7815 33.984C65.3762 34.656 64.8162 35.184 64.1015 35.568C63.3868 35.9413 62.5762 36.128 61.6695 36.128ZM61.6695 34.08C62.3095 34.08 62.8322 33.8667 63.2375 33.44C63.6535 33.0027 63.8615 32.4213 63.8615 31.696C63.8615 30.9707 63.6535 30.3947 63.2375 29.968C62.8322 29.5307 62.3095 29.312 61.6695 29.312C61.0295 29.312 60.5015 29.5307 60.0855 29.968C59.6695 30.3947 59.4615 30.9707 59.4615 31.696C59.4615 32.4213 59.6695 33.0027 60.0855 33.44C60.5015 33.8667 61.0295 34.08 61.6695 34.08ZM76.2373 27.392V36H73.7413V29.44H71.0213L70.9413 30.96C70.8986 32.0907 70.7919 33.0293 70.6213 33.776C70.4506 34.5227 70.1733 35.1093 69.7893 35.536C69.4053 35.9627 68.8719 36.176 68.1893 36.176C67.8266 36.176 67.3946 36.112 66.8933 35.984L67.0213 33.936C67.1919 33.9573 67.3146 33.968 67.3893 33.968C67.7626 33.968 68.0399 33.8347 68.2213 33.568C68.4133 33.2907 68.5413 32.944 68.6053 32.528C68.6693 32.1013 68.7173 31.5413 68.7493 30.848L68.8773 27.392H76.2373ZM87.2615 27.392L83.3735 36.528C82.9788 37.52 82.4882 38.2187 81.9015 38.624C81.3255 39.0293 80.6268 39.232 79.8055 39.232C79.3575 39.232 78.9148 39.1627 78.4775 39.024C78.0402 38.8853 77.6828 38.6933 77.4055 38.448L78.3175 36.672C78.5095 36.8427 78.7282 36.976 78.9735 37.072C79.2295 37.168 79.4802 37.216 79.7255 37.216C80.0668 37.216 80.3442 37.1307 80.5575 36.96C80.7708 36.8 80.9628 36.528 81.1335 36.144L81.1655 36.064L77.4375 27.392H80.0135L82.4295 33.232L84.8615 27.392H87.2615ZM96.2096 27.392V36H93.7136V32.8C92.9883 33.1627 92.1883 33.344 91.3136 33.344C90.151 33.344 89.271 33.0827 88.6736 32.56C88.087 32.0267 87.7936 31.2053 87.7936 30.096V27.392H90.2896V29.936C90.2896 30.4587 90.423 30.8373 90.6896 31.072C90.967 31.3067 91.3616 31.424 91.8736 31.424C92.5243 31.424 93.1376 31.2853 93.7136 31.008V27.392H96.2096ZM98.6063 27.392H101.086V32.512L105.278 27.392H107.566V36H105.086V30.88L100.91 36H98.6063V27.392ZM117.198 29.44H114.286V36H111.806V29.44H108.894V27.392H117.198V29.44ZM123.184 30.144C124.304 30.1547 125.163 30.4107 125.76 30.912C126.357 31.4027 126.656 32.1013 126.656 33.008C126.656 33.9573 126.32 34.6987 125.648 35.232C124.987 35.7547 124.053 36.016 122.848 36.016L118.528 36V27.392H121.008V30.144H123.184ZM122.624 34.24C123.104 34.2507 123.472 34.1493 123.728 33.936C123.984 33.7227 124.112 33.4027 124.112 32.976C124.112 32.56 123.984 32.256 123.728 32.064C123.483 31.872 123.115 31.7707 122.624 31.76L121.008 31.744V34.24H122.624ZM136.539 32.736H135.243V36H132.747V27.392H135.243V30.736H136.587L138.923 27.392H141.579L138.571 31.52L141.787 36H138.843L136.539 32.736ZM146.779 36.128C145.872 36.128 145.056 35.9413 144.331 35.568C143.616 35.184 143.056 34.656 142.651 33.984C142.246 33.312 142.043 32.5493 142.043 31.696C142.043 30.8427 142.246 30.08 142.651 29.408C143.056 28.736 143.616 28.2133 144.331 27.84C145.056 27.456 145.872 27.264 146.779 27.264C147.686 27.264 148.496 27.456 149.211 27.84C149.926 28.2133 150.486 28.736 150.891 29.408C151.296 30.08 151.499 30.8427 151.499 31.696C151.499 32.5493 151.296 33.312 150.891 33.984C150.486 34.656 149.926 35.184 149.211 35.568C148.496 35.9413 147.686 36.128 146.779 36.128ZM146.779 34.08C147.419 34.08 147.942 33.8667 148.347 33.44C148.763 33.0027 148.971 32.4213 148.971 31.696C148.971 30.9707 148.763 30.3947 148.347 29.968C147.942 29.5307 147.419 29.312 146.779 29.312C146.139 29.312 145.611 29.5307 145.195 29.968C144.779 30.3947 144.571 30.9707 144.571 31.696C144.571 32.4213 144.779 33.0027 145.195 33.44C145.611 33.8667 146.139 34.08 146.779 34.08ZM153.216 27.392H155.696V30.752H159.44V27.392H161.936V36H159.44V32.784H155.696V36H153.216V27.392ZM168.421 36.128C167.504 36.128 166.677 35.9413 165.941 35.568C165.216 35.184 164.645 34.656 164.229 33.984C163.824 33.312 163.621 32.5493 163.621 31.696C163.621 30.8427 163.824 30.08 164.229 29.408C164.645 28.736 165.216 28.2133 165.941 27.84C166.677 27.456 167.504 27.264 168.421 27.264C169.328 27.264 170.117 27.456 170.789 27.84C171.472 28.2133 171.968 28.752 172.277 29.456L170.341 30.496C169.893 29.7067 169.248 29.312 168.405 29.312C167.754 29.312 167.216 29.5253 166.789 29.952C166.362 30.3787 166.149 30.96 166.149 31.696C166.149 32.432 166.362 33.0133 166.789 33.44C167.216 33.8667 167.754 34.08 168.405 34.08C169.258 34.08 169.904 33.6853 170.341 32.896L172.277 33.952C171.968 34.6347 171.472 35.168 170.789 35.552C170.117 35.936 169.328 36.128 168.421 36.128ZM182.293 27.392L178.405 36.528C178.01 37.52 177.519 38.2187 176.933 38.624C176.357 39.0293 175.658 39.232 174.837 39.232C174.389 39.232 173.946 39.1627 173.509 39.024C173.071 38.8853 172.714 38.6933 172.437 38.448L173.349 36.672C173.541 36.8427 173.759 36.976 174.005 37.072C174.261 37.168 174.511 37.216 174.757 37.216C175.098 37.216 175.375 37.1307 175.589 36.96C175.802 36.8 175.994 36.528 176.165 36.144L176.197 36.064L172.469 27.392H175.045L177.461 33.232L179.893 27.392H182.293ZM191.144 27.392V36H188.648V29.44H185.928L185.848 30.96C185.805 32.0907 185.698 33.0293 185.528 33.776C185.357 34.5227 185.08 35.1093 184.696 35.536C184.312 35.9627 183.778 36.176 183.096 36.176C182.733 36.176 182.301 36.112 181.8 35.984L181.928 33.936C182.098 33.9573 182.221 33.968 182.296 33.968C182.669 33.968 182.946 33.8347 183.128 33.568C183.32 33.2907 183.448 32.944 183.512 32.528C183.576 32.1013 183.624 31.5413 183.656 30.848L183.784 27.392H191.144ZM198.2 30.144C199.32 30.1547 200.178 30.4107 200.776 30.912C201.373 31.4027 201.672 32.1013 201.672 33.008C201.672 33.9573 201.336 34.6987 200.664 35.232C200.002 35.7547 199.069 36.016 197.864 36.016L193.544 36V27.392H196.024V30.144H198.2ZM197.64 34.24C198.12 34.2507 198.488 34.1493 198.744 33.936C199 33.7227 199.128 33.4027 199.128 32.976C199.128 32.56 199 32.256 198.744 32.064C198.498 31.872 198.13 31.7707 197.64 31.76L196.024 31.744V34.24H197.64ZM209.682 29.44H206.77V36H204.29V29.44H201.378V27.392H209.682V29.44ZM214.357 27.264C215.69 27.264 216.714 27.584 217.429 28.224C218.143 28.8533 218.501 29.808 218.501 31.088V36H216.165V34.928C215.695 35.728 214.821 36.128 213.541 36.128C212.879 36.128 212.303 36.016 211.812 35.792C211.333 35.568 210.965 35.2587 210.709 34.864C210.453 34.4693 210.325 34.0213 210.325 33.52C210.325 32.72 210.623 32.0907 211.221 31.632C211.829 31.1733 212.762 30.944 214.021 30.944H216.005C216.005 30.4 215.839 29.984 215.509 29.696C215.178 29.3973 214.682 29.248 214.021 29.248C213.562 29.248 213.109 29.3227 212.661 29.472C212.223 29.6107 211.85 29.8027 211.541 30.048L210.645 28.304C211.114 27.9733 211.674 27.7173 212.325 27.536C212.986 27.3547 213.663 27.264 214.357 27.264ZM214.165 34.448C214.591 34.448 214.97 34.352 215.301 34.16C215.631 33.9573 215.866 33.664 216.005 33.28V32.4H214.293C213.269 32.4 212.757 32.736 212.757 33.408C212.757 33.728 212.879 33.984 213.125 34.176C213.381 34.3573 213.727 34.448 214.165 34.448ZM230.365 33.952V37.888H228.045V36H220.669V27.392H223.149V33.952H226.621V27.392H229.117V33.952H230.365ZM231.934 27.392H234.414V32.512L238.606 27.392H240.894V36H238.414V30.88L234.238 36H231.934V27.392ZM251.438 27.264C252.312 27.264 253.096 27.456 253.79 27.84C254.483 28.2133 255.027 28.736 255.422 29.408C255.816 30.08 256.014 30.8427 256.014 31.696C256.014 32.5493 255.816 33.312 255.422 33.984C255.027 34.656 254.483 35.184 253.79 35.568C253.096 35.9413 252.312 36.128 251.438 36.128C250.68 36.128 249.987 35.9893 249.358 35.712C248.728 35.424 248.206 35.024 247.79 34.512C247.374 33.9893 247.096 33.392 246.958 32.72H245.774V36H243.294V27.392H245.774V30.56H246.974C247.219 29.5573 247.742 28.7573 248.542 28.16C249.342 27.5627 250.307 27.264 251.438 27.264ZM251.438 34.08C252.046 34.08 252.547 33.8667 252.942 33.44C253.347 33.0027 253.55 32.4213 253.55 31.696C253.55 30.96 253.347 30.3787 252.942 29.952C252.547 29.5253 252.046 29.312 251.438 29.312C250.819 29.312 250.307 29.5253 249.902 29.952C249.507 30.3787 249.31 30.96 249.31 31.696C249.31 32.4213 249.507 33.0027 249.902 33.44C250.307 33.8667 250.819 34.08 251.438 34.08Z" fill="white"/>
</svg>
